<svg width="48" height="72" viewBox="0 0 48 72" fill="none" xmlns="http://www.w3.org/2000/svg">
<path d="M2.15639 31.3788L38.1579 1.37752C39.3818 0.365166 40.9569 -0.120944 42.5385 0.0256381C44.12 0.17222 45.579 0.939549 46.5959 2.15959C47.6129 3.37963 48.1049 4.95295 47.9643 6.53502C47.8237 8.11709 47.0619 9.57896 45.8457 10.6005L15.3757 35.9905L45.8457 61.3805C47.0666 62.4006 47.8326 63.8637 47.9755 65.4482C48.1184 67.0328 47.6265 68.6093 46.6078 69.8314C45.5892 71.0535 44.127 71.8213 42.5427 71.966C40.9583 72.1108 39.3812 71.6208 38.1579 70.6036L2.15639 40.6018C1.48134 40.0378 0.93833 39.3325 0.565723 38.5357C0.193117 37.7389 -3.8147e-06 36.87 -3.8147e-06 35.9903C-3.8147e-06 35.1107 0.193117 34.2418 0.565723 33.4449C0.93833 32.6481 1.48134 31.9428 2.15639 31.3788Z" fill="#DA1C5C"/>
</svg>
