<svg xmlns="http://www.w3.org/2000/svg" xmlns:xlink="http://www.w3.org/1999/xlink" viewBox="0 0 996.6 384.12"><defs><style>.cls-1{fill:none;}.cls-2{fill:#DA1C5C;}.cls-3{clip-path:url(#clip-path);}.cls-4{clip-path:url(#clip-path-2);}.cls-5{clip-path:url(#clip-path-3);}.cls-6{clip-path:url(#clip-path-4);}</style><clipPath id="clip-path"><rect class="cls-1" x="621.91" y="363" width="374.7" height="7"/></clipPath><clipPath id="clip-path-2"><rect class="cls-1" x="394.62" y="348.98" width="207.36" height="34.02"/></clipPath><clipPath id="clip-path-3"><rect class="cls-1" x="372.39" y="0.56" width="251.82" height="251.26"/></clipPath><clipPath id="clip-path-4"><rect class="cls-1" x="422.66" y="64.24" width="151.29" height="123.35"/></clipPath></defs><title>logo</title><g id="Layer_2" data-name="Layer 2"><g id="Layer_1-2" data-name="Layer 1"><rect class="cls-2" y="363.98" width="374.47" height="5.13"/><g class="cls-3"><rect class="cls-2" x="622.14" y="363.98" width="374.46" height="5.13"/></g><path class="cls-2" d="M.11,290.7v-11H42.57v18.71H30.8V290.7h-13v11.55H29.06v10.53H17.81v11.87h5.78v9.92H.11v-9.92H5.79V290.7Zm44.3-1.05V279.7h22v9.95h-5v22.77a17.21,17.21,0,0,0,.71,5.28,9.47,9.47,0,0,0,2,3.56,7.66,7.66,0,0,0,3,2,11.12,11.12,0,0,0,3.81.63,13.16,13.16,0,0,0,3.89-.54,6.79,6.79,0,0,0,3-1.87A8.7,8.7,0,0,0,79.68,318a19.64,19.64,0,0,0,.66-5.53V289.65H74.52V279.7h22v9.95H92.15V311a29.77,29.77,0,0,1-1.66,10.29,22.33,22.33,0,0,1-4.58,7.62,19.5,19.5,0,0,1-6.84,4.74,21.71,21.71,0,0,1-8.42,1.64,21.4,21.4,0,0,1-8.33-1.62A19.36,19.36,0,0,1,55.57,329,22.34,22.34,0,0,1,51,321.58a27.77,27.77,0,0,1-1.67-9.92v-22Zm93.41,0V279.7h20.85v9.95h-4.45v44.92h-12l-22.83-35.48v25.56H124v9.92H103.15v-9.92h4.52v-35h-4.45V279.7H119.8l22.7,35.94v-26Zm26.78,0V279.7h23.5v9.95h-5.8v16l17.55-15.32V279.7h18.72v10.67h-4.08l-18.28,15.72,17.51,17.73h4.46v10.75H200V323.82L182.3,306.15v18.5h5.8v9.92H164.6v-9.92h5.69v-35Zm57.51,0V279.7h23.5v9.95H241l7.34,12.6,7.78-12.6h-5.24V279.7h23.49v9.95h-4.06L254,311.8v12.85h6.67v9.92H236.19v-9.92h6.08v-13l-15.34-22Zm72.82,44.92v-9.92H300v-35h-5.1V279.7h22.6l16.17,39.6,15-39.6h22.9v9.95h-5.09v35h5v9.92H351v-9.92h3.77V293.09l-16.43,40.83H328.2l-16.72-39.75v30.48h4.09v9.92Zm109.71,1a25,25,0,0,1-7.13-1,26.07,26.07,0,0,1-6.36-2.86,26.67,26.67,0,0,1-5.35-4.43,28.22,28.22,0,0,1-4.11-5.77,30.56,30.56,0,0,1-2.64-21.93,30.29,30.29,0,0,1,2.64-6.8A27.29,27.29,0,0,1,385.8,287a26.06,26.06,0,0,1,5.35-4.44,25.69,25.69,0,0,1,6.36-2.86,24.63,24.63,0,0,1,7.13-1,25,25,0,0,1,7.15,1,25.44,25.44,0,0,1,6.37,2.86,26.06,26.06,0,0,1,5.35,4.44,27.38,27.38,0,0,1,4.13,5.75,30.34,30.34,0,0,1,2.66,6.8,30.32,30.32,0,0,1-2.66,21.93,28.31,28.31,0,0,1-4.13,5.77,26.67,26.67,0,0,1-5.35,4.43,25.8,25.8,0,0,1-6.37,2.86,25.32,25.32,0,0,1-7.15,1Zm0-11.37a12.42,12.42,0,0,0,5.77-1.35,14.2,14.2,0,0,0,4.51-3.69,17.81,17.81,0,0,0,2.92-5.43,20.94,20.94,0,0,0,1-6.58,20.53,20.53,0,0,0-1.05-6.61,17.08,17.08,0,0,0-2.95-5.46,14.42,14.42,0,0,0-4.51-3.69,12.77,12.77,0,0,0-11.43,0,14.13,14.13,0,0,0-4.49,3.69,17.69,17.69,0,0,0-2.95,5.46,20.86,20.86,0,0,0,0,13.19,17.88,17.88,0,0,0,2.95,5.43,14.13,14.13,0,0,0,4.49,3.69,12.27,12.27,0,0,0,5.72,1.35Zm68.48-34.53V279.7H494v9.95h-4.45v44.92h-12l-22.84-35.48v25.56h4.6v9.92H438.44v-9.92H443v-35h-4.45V279.7h16.57l22.7,35.94v-26Zm26.78,0V279.7h23.48v9.95H517.6v16l17.55-15.32V279.7h18.71v10.67h-4.09l-18.28,15.72L549,323.82h4.45v10.75h-18.2V323.82L517.6,306.15v18.5h5.78v9.92H499.9v-9.92h5.67v-35Zm59.89,1V279.7h43.67v18.71H591.65v-7.78H577.57v10.82h10.89V312H577.57v12.7h14.08v-9.74h11.81v19.66H559.79v-9.92h5.76v-34Zm47.56-1V279.7h23.5v9.95h-4.61l7.36,12.6,7.78-12.6h-5.25V279.7h23.48v9.95h-4L639.25,311.8v12.85h6.65v9.92H621.44v-9.92h6.07v-13l-15.34-22Zm101.06,44.92v-9.92h5.47l-2.47-7.88H694.54l-2.46,7.88h5.8v9.92H677.07v-9.92h4.09L696.1,279.7h14.52l14.61,44.95h4v9.92Zm-5.5-44.92-5.5,17.85h11.07Zm31.23,0V279.7h29a21.25,21.25,0,0,1,7.56,1.26,17,17,0,0,1,5.61,3.4,14.6,14.6,0,0,1,4.71,10.76,17.4,17.4,0,0,1-.61,4.88,12.17,12.17,0,0,1-1.73,3.73,12.73,12.73,0,0,1-2.8,2.88,22.73,22.73,0,0,1-3.8,2.27,9.14,9.14,0,0,1,3.25,2.87,13.42,13.42,0,0,1,2.13,5l1.86,7.12h4.52l.07,10.68H768l-2.18-13a17.45,17.45,0,0,0-1-4,7.65,7.65,0,0,0-1.8-2.75,6.83,6.83,0,0,0-2.73-1.57,12.38,12.38,0,0,0-3.82-.52h-4.67v11.95h5v9.92H734.14v-9.92h5.68v-35Zm24.89,0h-7.2v13.28H759a16.76,16.76,0,0,0,3.71-.37,8,8,0,0,0,2.83-1.2,5.45,5.45,0,0,0,1.81-2,6.25,6.25,0,0,0,.64-2.94,5.9,5.9,0,0,0-2.28-4.95q-2.28-1.79-6.71-1.78Zm77.6,6.73H825.46a18.33,18.33,0,0,0-3.67-4.11,10.23,10.23,0,0,0-3.5-1.73,14.6,14.6,0,0,0-3.95-.52,12,12,0,0,0-5.64,1.35,14.27,14.27,0,0,0-4.5,3.69,17.72,17.72,0,0,0-3,5.42,20.77,20.77,0,0,0,0,13.19,17.42,17.42,0,0,0,2.95,5.41,14.2,14.2,0,0,0,4.49,3.67,12.17,12.17,0,0,0,5.71,1.35,11.73,11.73,0,0,0,4.06-.69,14,14,0,0,0,3.42-1.87,14.42,14.42,0,0,0,2.69-2.66,13,13,0,0,0,1.82-3.14L838,319a23.41,23.41,0,0,1-3.29,6.57,22.77,22.77,0,0,1-5.23,5.23,25.13,25.13,0,0,1-6.88,3.47,25.64,25.64,0,0,1-8.24,1.28,25.15,25.15,0,0,1-7.14-1,26.1,26.1,0,0,1-6.34-2.86,25.58,25.58,0,0,1-5.35-4.47,26.56,26.56,0,0,1-4.11-5.76,30.24,30.24,0,0,1-3.59-14.38A29.44,29.44,0,0,1,789.88,296a28.53,28.53,0,0,1,5.64-9,26.51,26.51,0,0,1,8.42-6.08,24.3,24.3,0,0,1,10.4-2.24,22.05,22.05,0,0,1,7.5,1.11,21.37,21.37,0,0,1,6.68,4.36h8.11ZM874,334.57v-9.92h5.45L877,316.77H860.13l-2.46,7.88h5.78v9.92H842.64v-9.92h4.09l15-44.95H876.2l14.62,44.95h4v9.92Zm-5.5-44.92L863,307.5h11.09Zm30.1,0V279.7h21.06a26.5,26.5,0,0,1,7.22,1,27.23,27.23,0,0,1,6.45,2.74,27.52,27.52,0,0,1,5.42,4.26,26.16,26.16,0,0,1,4.18,5.51,28.15,28.15,0,0,1,0,27.75,27.08,27.08,0,0,1-9.6,9.88,26.12,26.12,0,0,1-6.45,2.77,26.5,26.5,0,0,1-7.22,1H898.6v-9.92H903v-35Zm21,0H915v35h4.61a11.65,11.65,0,0,0,5.53-1.38,14.08,14.08,0,0,0,4.52-3.74,18.09,18.09,0,0,0,3-5.57,21.45,21.45,0,0,0,0-13.74,17.88,17.88,0,0,0-3-5.53,13.93,13.93,0,0,0-4.52-3.69,11.86,11.86,0,0,0-5.53-1.35Zm33.25,1V279.7H996.5v18.71H984.7v-7.78H970.63v10.82h10.89V312H970.63v12.7H984.7v-9.74h11.8v19.66H952.85v-9.92h5.75v-34Z"/><g class="cls-4"><path class="cls-2" d="M409.75,349h3.55v12.76a16.48,16.48,0,0,1-2.34,8.88,14.1,14.1,0,0,1-7,5.62,14.27,14.27,0,0,1-7-5.49,15.57,15.57,0,0,1-2.39-8.67V349h3.64v12.64a14.58,14.58,0,0,0,1.25,6.37,10.12,10.12,0,0,0,4.51,4.35,10.57,10.57,0,0,0,4.45-4.39,14.31,14.31,0,0,0,1.27-6.33Zm12.83,8.33v18.17h-3.33v-15h-3.11l1.52-3.18Zm-3.48-3.79a2.27,2.27,0,0,1-.5-1.4,2.2,2.2,0,0,1,.5-1.39,2.16,2.16,0,0,1,3,0,2.2,2.2,0,0,1,0,2.77,2.19,2.19,0,0,1-3,0Zm22.75,18.78V349h3.41v26.5h-8.89a8.93,8.93,0,0,1-6.7-2.63,9.69,9.69,0,0,1,.09-13.26,8.7,8.7,0,0,1,6.34-2.66,9,9,0,0,1,4.4,1.13v3.41a7.34,7.34,0,0,0-4.4-1.36,5,5,0,0,0-3.84,1.69,6.18,6.18,0,0,0-1.57,4.41,6.42,6.42,0,0,0,1.49,4.43,5.35,5.35,0,0,0,4.19,1.66Zm16.86-15.37q6.44.27,6.43,5.34,0,6.32-8.29,6.32H455.3v-2.91h1.82a5.87,5.87,0,0,0,3.52-.78,3.11,3.11,0,0,0,1-2.6,2,2,0,0,0-.88-1.76,3.91,3.91,0,0,0-2.23-.58,5.14,5.14,0,0,0-4.22,1.89,7,7,0,0,0-1.54,4.55,6.32,6.32,0,0,0,1.65,4.54,5.65,5.65,0,0,0,4.3,1.74,6.2,6.2,0,0,0,3.9-1.17l2.27,2.23a10.35,10.35,0,0,1-13.06-.41,8.8,8.8,0,0,1-2.58-6.56,10.29,10.29,0,0,1,2.54-7.23,8.52,8.52,0,0,1,6.93-2.61Zm12.3,2.76a8.82,8.82,0,0,1,6.63-2.76,8.94,8.94,0,0,1,3.62.73,9.69,9.69,0,0,1,3,2,9.52,9.52,0,0,1,2.7,6.71,9.84,9.84,0,0,1-.69,3.69,9.44,9.44,0,0,1-2,3,9.18,9.18,0,0,1-6.63,2.76,8.9,8.9,0,0,1-3.68-.74,9.05,9.05,0,0,1-4.89-5,9.66,9.66,0,0,1-.71-3.69,9.2,9.2,0,0,1,2.65-6.71Zm6.63.42a5.51,5.51,0,0,0-4.25,1.74,7.19,7.19,0,0,0,0,9.09,6.08,6.08,0,0,0,8.54,0,7.27,7.27,0,0,0,0-9.05,5.49,5.49,0,0,0-4.29-1.76Zm30.53,15.37a8.94,8.94,0,0,1-6.36-2.49,8.4,8.4,0,0,1-2.65-6.4,9.09,9.09,0,0,1,9.27-9.28h8.91V375a9.74,9.74,0,0,1-.45,3.06,6.52,6.52,0,0,1-1.22,2.31,11.41,11.41,0,0,1-1.44,1.48,16.24,16.24,0,0,1-1.55,1.1,12.34,12.34,0,0,1-5.72,1.21h-4.25v-3.18h3.91a9.87,9.87,0,0,0,4.73-.83,5,5,0,0,0,2.58-4.77V360.49h-5.5a5.57,5.57,0,0,0-4.27,1.67,6.09,6.09,0,0,0-1.59,4.43,5.42,5.42,0,0,0,1.64,4.18,5.62,5.62,0,0,0,4,1.53,7.29,7.29,0,0,0,4.39-1.36v3.41a8.86,8.86,0,0,1-4.39,1.13Zm24-10.68v3.41a5.67,5.67,0,0,0-3.53-1.09,4.75,4.75,0,0,0-2.76.69,2.3,2.3,0,0,0-1,2q0,2.51,3.71,2.5h5v-7.23c0-3.05-1.48-4.58-4.47-4.58h-6v-3.18h6.24a8,8,0,0,1,5.65,1.82,6.75,6.75,0,0,1,2,5.22v11.13H528.5a8.22,8.22,0,0,1-5.11-1.43,5,5,0,0,1-1.9-4.21,4.84,4.84,0,0,1,2-4.2,8.44,8.44,0,0,1,5-1.44,12.3,12.3,0,0,1,3.64.6Zm9.12,10.68V357.31H558a7.83,7.83,0,0,1,4.28,1,4.81,4.81,0,0,1,2.15,2.65,13.54,13.54,0,0,1,.5,3.9v10.6H561.6v-10.6c0-2-.59-3.27-1.78-3.9a8.9,8.9,0,0,0-3.67-.49h-1.56v15h-3.33v-15h-6.63v15Zm37.08-18.55q6.43.27,6.44,5.34,0,6.32-8.3,6.32H575v-2.91h1.82a5.85,5.85,0,0,0,3.52-.78,3.11,3.11,0,0,0,1-2.6,2,2,0,0,0-.87-1.76,4,4,0,0,0-2.24-.58,5.14,5.14,0,0,0-4.22,1.89,7,7,0,0,0-1.54,4.55,6.32,6.32,0,0,0,1.65,4.54,5.65,5.65,0,0,0,4.3,1.74,6.2,6.2,0,0,0,3.9-1.17l2.27,2.23a10.35,10.35,0,0,1-13.06-.41,8.8,8.8,0,0,1-2.58-6.56,10.29,10.29,0,0,1,2.54-7.23,8.52,8.52,0,0,1,6.93-2.61Zm16.13.38h6.71v3.18h-6.71a4,4,0,0,0-1.89.42,1.27,1.27,0,0,0-.8,1.17,1.79,1.79,0,0,0,.19.81,2.31,2.31,0,0,0,.43.59,3.25,3.25,0,0,0,.76.47,6.35,6.35,0,0,0,.8.34l2.41.78c1.41.46,2.46.83,3.14,1.14a3.76,3.76,0,0,1,1.57,1.22,4,4,0,0,1,.7,1.52,6.73,6.73,0,0,1,.16,1.46q0,5.07-7,5.07h-6.56V372.3H595c2.37,0,3.56-.63,3.56-1.89a1.77,1.77,0,0,0-1.05-1.52,10.58,10.58,0,0,0-2.54-1c-1-.28-2-.61-3-1a6.07,6.07,0,0,1-2.54-1.77,4.6,4.6,0,0,1-1-3.05,4.08,4.08,0,0,1,1.77-3.55,7.42,7.42,0,0,1,4.32-1.22Z"/></g><g class="cls-5"><path class="cls-2" d="M372.39,125.91A125.91,125.91,0,1,1,498.3,251.82,125.91,125.91,0,0,1,372.39,125.91ZM498.3,246.7A120.79,120.79,0,1,0,377.52,125.91,120.79,120.79,0,0,0,498.3,246.7Z"/></g><path class="cls-2" d="M492.66,108.82a8.93,8.93,0,1,1-8.92-8.93,8.92,8.92,0,0,1,8.92,8.93Z"/><path class="cls-2" d="M521.79,108.82a8.93,8.93,0,1,1-8.92-8.93,8.92,8.92,0,0,1,8.92,8.93Z"/><g class="cls-6"><path class="cls-2" d="M553.23,90.2a20.66,20.66,0,0,0-4.33.46,61.66,61.66,0,0,0-101.19,0,20.71,20.71,0,0,0-10.89,39.89,61.66,61.66,0,0,0,123,0,20.71,20.71,0,0,0-6.56-40.35ZM437.85,120.6a9.13,9.13,0,1,1,9.13-9.13,9.12,9.12,0,0,1-9.13,9.13Zm60.45,57.52c-21.85,0-40.16-11.73-45.09-27.5,10.36,5.29,26.81,8.55,45.09,8.55s34.73-3.26,45.09-8.55c-4.93,15.77-23.24,27.5-45.09,27.5Zm46.39-35.42c-7.36,5.47-24.21,10.35-46.39,10.35s-39-4.88-46.39-10.35c0-.2,0-.4,0-.6,0-8.87,4.13-17,11-23.26A21.61,21.61,0,1,1,498.3,94.09a21.61,21.61,0,1,1,35.43,24.75c6.84,6.28,11,14.39,11,23.26,0,.2,0,.4,0,.6Zm14.06-22.1a9.13,9.13,0,1,1,9.13-9.13,9.12,9.12,0,0,1-9.13,9.13Z"/></g></g></g></svg>
